<svg width="16" height="19" viewBox="0 0 16 19" fill="none" xmlns="http://www.w3.org/2000/svg">
<path fill-rule="evenodd" clip-rule="evenodd" d="M0.800049 2.99998C0.800049 2.36346 1.05291 1.75301 1.50299 1.30292C1.95308 0.852832 2.56353 0.599976 3.20005 0.599976C3.20005 1.55475 3.57933 2.47043 4.25446 3.14556C4.9296 3.82069 5.84527 4.19998 6.80005 4.19998H9.20005C10.1548 4.19998 11.0705 3.82069 11.7456 3.14556C12.4208 2.47043 12.8 1.55475 12.8 0.599976C13.4366 0.599976 14.047 0.852832 14.4971 1.30292C14.9472 1.75301 15.2 2.36346 15.2 2.99998V16.2C15.2 16.8365 14.9472 17.4469 14.4971 17.897C14.047 18.3471 13.4366 18.6 12.8 18.6H3.20005C2.56353 18.6 1.95308 18.3471 1.50299 17.897C1.05291 17.4469 0.800049 16.8365 0.800049 16.2V2.99998ZM4.40005 7.79998C4.08179 7.79998 3.77656 7.9264 3.55152 8.15145C3.32648 8.37649 3.20005 8.68172 3.20005 8.99998C3.20005 9.31824 3.32648 9.62346 3.55152 9.8485C3.77656 10.0735 4.08179 10.2 4.40005 10.2H4.41205C4.73031 10.2 5.03553 10.0735 5.26058 9.8485C5.48562 9.62346 5.61205 9.31824 5.61205 8.99998C5.61205 8.68172 5.48562 8.37649 5.26058 8.15145C5.03553 7.9264 4.73031 7.79998 4.41205 7.79998H4.40005ZM8.00005 7.79998C7.68179 7.79998 7.37656 7.9264 7.15152 8.15145C6.92648 8.37649 6.80005 8.68172 6.80005 8.99998C6.80005 9.31824 6.92648 9.62346 7.15152 9.8485C7.37656 10.0735 7.68179 10.2 8.00005 10.2H11.6C11.9183 10.2 12.2235 10.0735 12.4486 9.8485C12.6736 9.62346 12.8 9.31824 12.8 8.99998C12.8 8.68172 12.6736 8.37649 12.4486 8.15145C12.2235 7.9264 11.9183 7.79998 11.6 7.79998H8.00005ZM4.40005 12.6C4.08179 12.6 3.77656 12.7264 3.55152 12.9514C3.32648 13.1765 3.20005 13.4817 3.20005 13.8C3.20005 14.1182 3.32648 14.4235 3.55152 14.6485C3.77656 14.8735 4.08179 15 4.40005 15H4.41205C4.73031 15 5.03553 14.8735 5.26058 14.6485C5.48562 14.4235 5.61205 14.1182 5.61205 13.8C5.61205 13.4817 5.48562 13.1765 5.26058 12.9514C5.03553 12.7264 4.73031 12.6 4.41205 12.6H4.40005ZM8.00005 12.6C7.68179 12.6 7.37656 12.7264 7.15152 12.9514C6.92648 13.1765 6.80005 13.4817 6.80005 13.8C6.80005 14.1182 6.92648 14.4235 7.15152 14.6485C7.37656 14.8735 7.68179 15 8.00005 15H11.6C11.9183 15 12.2235 14.8735 12.4486 14.6485C12.6736 14.4235 12.8 14.1182 12.8 13.8C12.8 13.4817 12.6736 13.1765 12.4486 12.9514C12.2235 12.7264 11.9183 12.6 11.6 12.6H8.00005Z" fill="#1A2544"/>
</svg>
