<svg width="21" height="20" viewBox="0 0 21 20" fill="none" xmlns="http://www.w3.org/2000/svg">
<path d="M10.5 4C10.2348 4 9.98043 4.10536 9.79289 4.29289C9.60536 4.48043 9.5 4.73478 9.5 5V15C9.5 15.2652 9.60536 15.5196 9.79289 15.7071C9.98043 15.8946 10.2348 16 10.5 16C10.7652 16 11.0196 15.8946 11.2071 15.7071C11.3946 15.5196 11.5 15.2652 11.5 15V5C11.5 4.73478 11.3946 4.48043 11.2071 4.29289C11.0196 4.10536 10.7652 4 10.5 4ZM5.5 10C5.23478 10 4.98043 10.1054 4.79289 10.2929C4.60536 10.4804 4.5 10.7348 4.5 11V15C4.5 15.2652 4.60536 15.5196 4.79289 15.7071C4.98043 15.8946 5.23478 16 5.5 16C5.76522 16 6.01957 15.8946 6.20711 15.7071C6.39464 15.5196 6.5 15.2652 6.5 15V11C6.5 10.7348 6.39464 10.4804 6.20711 10.2929C6.01957 10.1054 5.76522 10 5.5 10ZM15.5 8C15.2348 8 14.9804 8.10536 14.7929 8.29289C14.6054 8.48043 14.5 8.73478 14.5 9V15C14.5 15.2652 14.6054 15.5196 14.7929 15.7071C14.9804 15.8946 15.2348 16 15.5 16C15.7652 16 16.0196 15.8946 16.2071 15.7071C16.3946 15.5196 16.5 15.2652 16.5 15V9C16.5 8.73478 16.3946 8.48043 16.2071 8.29289C16.0196 8.10536 15.7652 8 15.5 8ZM17.5 0H3.5C2.70435 0 1.94129 0.316071 1.37868 0.87868C0.816071 1.44129 0.5 2.20435 0.5 3V17C0.5 17.7956 0.816071 18.5587 1.37868 19.1213C1.94129 19.6839 2.70435 20 3.5 20H17.5C18.2956 20 19.0587 19.6839 19.6213 19.1213C20.1839 18.5587 20.5 17.7956 20.5 17V3C20.5 2.20435 20.1839 1.44129 19.6213 0.87868C19.0587 0.316071 18.2956 0 17.5 0ZM18.5 17C18.5 17.2652 18.3946 17.5196 18.2071 17.7071C18.0196 17.8946 17.7652 18 17.5 18H3.5C3.23478 18 2.98043 17.8946 2.79289 17.7071C2.60536 17.5196 2.5 17.2652 2.5 17V3C2.5 2.73478 2.60536 2.48043 2.79289 2.29289C2.98043 2.10536 3.23478 2 3.5 2H17.5C17.7652 2 18.0196 2.10536 18.2071 2.29289C18.3946 2.48043 18.5 2.73478 18.5 3V17Z" fill="#BABDCC"/>
</svg>
