<svg width="25" height="24" viewBox="0 0 25 24" fill="none" xmlns="http://www.w3.org/2000/svg">
<path d="M5.5 12C5.23478 12 4.98043 12.1054 4.79289 12.2929C4.60536 12.4804 4.5 12.7348 4.5 13V21C4.5 21.2652 4.60536 21.5196 4.79289 21.7071C4.98043 21.8946 5.23478 22 5.5 22C5.76522 22 6.01957 21.8946 6.20711 21.7071C6.39464 21.5196 6.5 21.2652 6.5 21V13C6.5 12.7348 6.39464 12.4804 6.20711 12.2929C6.01957 12.1054 5.76522 12 5.5 12ZM10.5 2C10.2348 2 9.98043 2.10536 9.79289 2.29289C9.60536 2.48043 9.5 2.73478 9.5 3V21C9.5 21.2652 9.60536 21.5196 9.79289 21.7071C9.98043 21.8946 10.2348 22 10.5 22C10.7652 22 11.0196 21.8946 11.2071 21.7071C11.3946 21.5196 11.5 21.2652 11.5 21V3C11.5 2.73478 11.3946 2.48043 11.2071 2.29289C11.0196 2.10536 10.7652 2 10.5 2ZM20.5 16C20.2348 16 19.9804 16.1054 19.7929 16.2929C19.6054 16.4804 19.5 16.7348 19.5 17V21C19.5 21.2652 19.6054 21.5196 19.7929 21.7071C19.9804 21.8946 20.2348 22 20.5 22C20.7652 22 21.0196 21.8946 21.2071 21.7071C21.3946 21.5196 21.5 21.2652 21.5 21V17C21.5 16.7348 21.3946 16.4804 21.2071 16.2929C21.0196 16.1054 20.7652 16 20.5 16ZM15.5 8C15.2348 8 14.9804 8.10536 14.7929 8.29289C14.6054 8.48043 14.5 8.73478 14.5 9V21C14.5 21.2652 14.6054 21.5196 14.7929 21.7071C14.9804 21.8946 15.2348 22 15.5 22C15.7652 22 16.0196 21.8946 16.2071 21.7071C16.3946 21.5196 16.5 21.2652 16.5 21V9C16.5 8.73478 16.3946 8.48043 16.2071 8.29289C16.0196 8.10536 15.7652 8 15.5 8Z" fill="#BABDCC"/>
</svg>
