<svg width="20" height="18" viewBox="0 0 20 18" fill="none" xmlns="http://www.w3.org/2000/svg">
<path d="M6.40002 0.599976C6.08176 0.599976 5.77654 0.726404 5.5515 0.951447C5.32645 1.17649 5.20002 1.48172 5.20002 1.79998C5.20002 2.11824 5.32645 2.42346 5.5515 2.6485C5.77654 2.87355 6.08176 2.99998 6.40002 2.99998H13.6C13.9183 2.99998 14.2235 2.87355 14.4486 2.6485C14.6736 2.42346 14.8 2.11824 14.8 1.79998C14.8 1.48172 14.6736 1.17649 14.4486 0.951447C14.2235 0.726404 13.9183 0.599976 13.6 0.599976H6.40002ZM2.80002 5.39998C2.80002 5.08172 2.92645 4.77649 3.1515 4.55145C3.37654 4.3264 3.68176 4.19998 4.00002 4.19998H16C16.3183 4.19998 16.6235 4.3264 16.8486 4.55145C17.0736 4.77649 17.2 5.08172 17.2 5.39998C17.2 5.71824 17.0736 6.02346 16.8486 6.2485C16.6235 6.47355 16.3183 6.59998 16 6.59998H4.00002C3.68176 6.59998 3.37654 6.47355 3.1515 6.2485C2.92645 6.02346 2.80002 5.71824 2.80002 5.39998ZM0.400024 10.2C0.400024 9.56346 0.652881 8.95301 1.10297 8.50292C1.55306 8.05283 2.1635 7.79998 2.80002 7.79998H17.2C17.8365 7.79998 18.447 8.05283 18.8971 8.50292C19.3472 8.95301 19.6 9.56346 19.6 10.2V15C19.6 15.6365 19.3472 16.2469 18.8971 16.697C18.447 17.1471 17.8365 17.4 17.2 17.4H2.80002C2.1635 17.4 1.55306 17.1471 1.10297 16.697C0.652881 16.2469 0.400024 15.6365 0.400024 15V10.2Z" fill="#1A2544"/>
</svg>
