<svg width="24" height="25" viewBox="0 0 24 25" fill="none" xmlns="http://www.w3.org/2000/svg">
<path d="M10.0618 20.9949C9.99363 20.7273 10.2239 20.5 10.5 20.5H13.5C13.7762 20.5 14.0065 20.7273 13.9383 20.9949C13.7181 21.8601 12.9338 22.5 12 22.5C11.0663 22.5 10.282 21.8601 10.0618 20.9949Z" fill="#1A2544"/>
<path d="M13.0044 4.5H10.9956L9.96389 4.87114C7.58584 5.72659 6.0002 7.98212 6.0002 10.5093V11.8354C6.0002 12.5691 5.6552 13.2601 5.06874 13.7011C3.02136 15.2405 4.11005 18.5 6.67157 18.5H17.3287C19.8903 18.5 20.979 15.2405 18.9316 13.7011C18.3452 13.2602 18.0002 12.5691 18.0002 11.8354V10.5094C18.0002 7.98215 16.4145 5.7266 14.0364 4.8712L13.0044 4.5Z" fill="#12131A"/>
<path d="M11 3.5C11 2.94772 11.4477 2.5 12 2.5C12.5523 2.5 13 2.94772 13 3.5V4.5H11V3.5Z" fill="#1A2544"/>
</svg>
