<svg width="42" height="25" viewBox="0 0 42 25" fill="none" xmlns="http://www.w3.org/2000/svg">
<path d="M13.9589 5.64382C13.9589 5.10288 14.3974 4.66437 14.9383 4.66437H32.5685C33.1094 4.66437 33.5479 5.10288 33.5479 5.64382C33.5479 6.18476 33.1094 6.62327 32.5685 6.62327H14.9383C14.3974 6.62327 13.9589 6.18476 13.9589 5.64382Z" fill="#1A2544"/>
<path d="M13.9589 19.3561C13.9589 18.8152 14.3974 18.3767 14.9383 18.3767H32.5685C33.1094 18.3767 33.5479 18.8152 33.5479 19.3561C33.5479 19.8971 33.1094 20.3356 32.5685 20.3356H14.9383C14.3974 20.3356 13.9589 19.8971 13.9589 19.3561Z" fill="#1A2544"/>
<path d="M14.9383 11.5205C14.3974 11.5205 13.9589 11.959 13.9589 12.5C13.9589 13.0409 14.3974 13.4794 14.9383 13.4794H32.5685C33.1094 13.4794 33.5479 13.0409 33.5479 12.5C33.5479 11.959 33.1094 11.5205 32.5685 11.5205H14.9383Z" fill="#1A2544"/>
<g filter="url(#filter0_d_689_341)">
<rect x="39.1781" y="5.64386" width="13.7123" height="13.7123" rx="6.85616" transform="rotate(90 39.1781 5.64386)" fill="#3A57E8"/>
<path d="M29.6653 12.5939L34.8074 12.5939" stroke="white" stroke-width="0.914155" stroke-linecap="round" stroke-linejoin="round"/>
<path d="M31.7391 14.6592L29.6651 12.5941L31.7391 10.5287" stroke="white" stroke-width="0.914155" stroke-linecap="round" stroke-linejoin="round"/>
</g>
<defs>
<filter id="filter0_d_689_341" x="23.6375" y="4.7297" width="17.3689" height="17.369" filterUnits="userSpaceOnUse" color-interpolation-filters="sRGB">
<feFlood flood-opacity="0" result="BackgroundImageFix"/>
<feColorMatrix in="SourceAlpha" type="matrix" values="0 0 0 0 0 0 0 0 0 0 0 0 0 0 0 0 0 0 127 0" result="hardAlpha"/>
<feOffset dy="0.914155"/>
<feGaussianBlur stdDeviation="0.914155"/>
<feColorMatrix type="matrix" values="0 0 0 0 0.541176 0 0 0 0 0.572549 0 0 0 0 0.65098 0 0 0 0.3 0"/>
<feBlend mode="normal" in2="BackgroundImageFix" result="effect1_dropShadow_689_341"/>
<feBlend mode="normal" in="SourceGraphic" in2="effect1_dropShadow_689_341" result="shape"/>
</filter>
</defs>
</svg>
