<svg width="24" height="25" viewBox="0 0 24 25" fill="none" xmlns="http://www.w3.org/2000/svg">
<path fill-rule="evenodd" clip-rule="evenodd" d="M3 20.5C3 19.9477 3.44772 19.5 4 19.5H20C20.5523 19.5 21 19.9477 21 20.5C21 21.0523 20.5523 21.5 20 21.5H4C3.44772 21.5 3 21.0523 3 20.5Z" fill="#1A2544"/>
<path fill-rule="evenodd" clip-rule="evenodd" d="M16 3.5C14.8954 3.5 14 4.39543 14 5.5V15.5C14 16.6046 14.8954 17.5 16 17.5C17.1046 17.5 18 16.6046 18 15.5V5.5C18 4.39543 17.1046 3.5 16 3.5Z" fill="#1A2544"/>
<path fill-rule="evenodd" clip-rule="evenodd" d="M8 9.5C6.89543 9.5 6 10.3954 6 11.5V15.5C6 16.6046 6.89543 17.5 8 17.5C9.10457 17.5 10 16.6046 10 15.5V11.5C10 10.3954 9.10457 9.5 8 9.5Z" fill="#1A2544"/>
</svg>
