<svg width="18" height="24" viewBox="0 0 18 24" fill="none" xmlns="http://www.w3.org/2000/svg">
<path fill-rule="evenodd" clip-rule="evenodd" d="M3 0.5C2.20435 0.5 1.44129 0.802901 0.87868 1.34207C0.31607 1.88123 0 2.6125 0 3.375V20.625C0 21.3875 0.31607 22.1188 0.87868 22.6579C1.44129 23.1971 2.20435 23.5 3 23.5H15C15.7956 23.5 16.5587 23.1971 17.1213 22.6579C17.6839 22.1188 18 21.3875 18 20.625V8.28263C17.9998 7.52019 17.6836 6.78904 17.121 6.25L12 1.34237C11.4375 0.803171 10.6746 0.500163 9.879 0.5H3ZM6 14.875C6 14.4938 5.84196 14.1281 5.56066 13.8585C5.27936 13.589 4.89782 13.4375 4.5 13.4375C4.10218 13.4375 3.72064 13.589 3.43934 13.8585C3.15804 14.1281 3 14.4938 3 14.875V19.1875C3 19.5687 3.15804 19.9344 3.43934 20.204C3.72064 20.4735 4.10218 20.625 4.5 20.625C4.89782 20.625 5.27936 20.4735 5.56066 20.204C5.84196 19.9344 6 19.5687 6 19.1875V14.875ZM9 10.5625C9.39782 10.5625 9.77936 10.714 10.0607 10.9835C10.342 11.2531 10.5 11.6188 10.5 12V19.1875C10.5 19.5687 10.342 19.9344 10.0607 20.204C9.77936 20.4735 9.39782 20.625 9 20.625C8.60218 20.625 8.22064 20.4735 7.93934 20.204C7.65804 19.9344 7.5 19.5687 7.5 19.1875V12C7.5 11.6188 7.65804 11.2531 7.93934 10.9835C8.22064 10.714 8.60218 10.5625 9 10.5625V10.5625ZM15 9.125C15 8.74375 14.842 8.37812 14.5607 8.10853C14.2794 7.83895 13.8978 7.6875 13.5 7.6875C13.1022 7.6875 12.7206 7.83895 12.4393 8.10853C12.158 8.37812 12 8.74375 12 9.125V19.1875C12 19.5687 12.158 19.9344 12.4393 20.204C12.7206 20.4735 13.1022 20.625 13.5 20.625C13.8978 20.625 14.2794 20.4735 14.5607 20.204C14.842 19.9344 15 19.5687 15 19.1875V9.125Z" fill="#1A2544"/>
</svg>
