<svg width="20" height="18" viewBox="0 0 20 18" fill="none" xmlns="http://www.w3.org/2000/svg">
<path fill-rule="evenodd" clip-rule="evenodd" d="M1.60039 0.600098C1.28213 0.600098 0.976906 0.726526 0.751862 0.951569C0.526819 1.17661 0.400391 1.48184 0.400391 1.8001V16.2001C0.400391 16.5184 0.526819 16.8236 0.751862 17.0486C0.976906 17.2737 1.28213 17.4001 1.60039 17.4001C1.91865 17.4001 2.22388 17.2737 2.44892 17.0486C2.67396 16.8236 2.80039 16.5184 2.80039 16.2001V1.8001C2.80039 1.48184 2.67396 1.17661 2.44892 0.951569C2.22388 0.726526 1.91865 0.600098 1.60039 0.600098V0.600098ZM13.952 11.7517C13.7334 11.978 13.6124 12.2811 13.6152 12.5958C13.6179 12.9104 13.7441 13.2114 13.9666 13.4339C14.1891 13.6564 14.4901 13.7826 14.8047 13.7853C15.1193 13.788 15.4225 13.6671 15.6488 13.4485L19.2488 9.8485C19.4738 9.62346 19.6001 9.3183 19.6001 9.0001C19.6001 8.6819 19.4738 8.37673 19.2488 8.1517L15.6488 4.5517C15.5381 4.43709 15.4057 4.34567 15.2593 4.28278C15.1129 4.21989 14.9554 4.18678 14.7961 4.1854C14.6367 4.18401 14.4787 4.21437 14.3312 4.27471C14.1838 4.33505 14.0498 4.42415 13.9371 4.53682C13.8244 4.64949 13.7353 4.78348 13.675 4.93095C13.6147 5.07843 13.5843 5.23644 13.5857 5.39578C13.5871 5.55511 13.6202 5.71258 13.6831 5.85898C13.746 6.00539 13.8374 6.1378 13.952 6.2485L15.5036 7.8001H6.40039C6.08213 7.8001 5.77691 7.92653 5.55186 8.15157C5.32682 8.37661 5.20039 8.68184 5.20039 9.0001C5.20039 9.31836 5.32682 9.62358 5.55186 9.84863C5.77691 10.0737 6.08213 10.2001 6.40039 10.2001H15.5036L13.952 11.7517V11.7517Z" fill="#1A2544"/>
</svg>
