<svg width="18" height="21" viewBox="0 0 18 21" fill="none" xmlns="http://www.w3.org/2000/svg">
<path fill-rule="evenodd" clip-rule="evenodd" d="M8.99996 0.899994C6.34916 0.899994 4.19996 3.04919 4.19996 5.69999V6.89999H2.99996C2.38796 6.89999 1.87438 7.35961 1.80718 7.96801L0.607178 18.768C0.569978 19.1064 0.677969 19.446 0.905969 19.7004C1.13397 19.9548 1.45916 20.1 1.79996 20.1H16.2C16.5408 20.1 16.866 19.9548 17.094 19.7004C17.322 19.446 17.4299 19.1064 17.3927 18.768L16.1927 7.96801C16.1255 7.35961 15.612 6.89999 15 6.89999H13.8V5.69999C13.8 3.04919 11.6508 0.899994 8.99996 0.899994ZM11.4 6.89999V5.69999C11.4 4.37399 10.326 3.29999 8.99996 3.29999C7.67396 3.29999 6.59996 4.37399 6.59996 5.69999V6.89999H11.4ZM4.19996 10.5C4.19996 9.83759 4.73756 9.29999 5.39996 9.29999C6.06236 9.29999 6.59996 9.83759 6.59996 10.5C6.59996 11.1624 6.06236 11.7 5.39996 11.7C4.73756 11.7 4.19996 11.1624 4.19996 10.5ZM12.6 9.29999C11.9376 9.29999 11.4 9.83759 11.4 10.5C11.4 11.1624 11.9376 11.7 12.6 11.7C13.2624 11.7 13.8 11.1624 13.8 10.5C13.8 9.83759 13.2624 9.29999 12.6 9.29999Z" fill="#1A2544"/>
</svg>
