<svg width="18" height="20" viewBox="0 0 18 20" fill="none" xmlns="http://www.w3.org/2000/svg">
<path d="M1.5 10C1.23478 10 0.98043 10.1054 0.792893 10.2929C0.605357 10.4804 0.5 10.7348 0.5 11V19C0.5 19.2652 0.605357 19.5196 0.792893 19.7071C0.98043 19.8946 1.23478 20 1.5 20C1.76522 20 2.01957 19.8946 2.20711 19.7071C2.39464 19.5196 2.5 19.2652 2.5 19V11C2.5 10.7348 2.39464 10.4804 2.20711 10.2929C2.01957 10.1054 1.76522 10 1.5 10ZM6.5 0C6.23478 0 5.98043 0.105357 5.79289 0.292893C5.60536 0.48043 5.5 0.734784 5.5 1V19C5.5 19.2652 5.60536 19.5196 5.79289 19.7071C5.98043 19.8946 6.23478 20 6.5 20C6.76522 20 7.01957 19.8946 7.20711 19.7071C7.39464 19.5196 7.5 19.2652 7.5 19V1C7.5 0.734784 7.39464 0.48043 7.20711 0.292893C7.01957 0.105357 6.76522 0 6.5 0ZM16.5 14C16.2348 14 15.9804 14.1054 15.7929 14.2929C15.6054 14.4804 15.5 14.7348 15.5 15V19C15.5 19.2652 15.6054 19.5196 15.7929 19.7071C15.9804 19.8946 16.2348 20 16.5 20C16.7652 20 17.0196 19.8946 17.2071 19.7071C17.3946 19.5196 17.5 19.2652 17.5 19V15C17.5 14.7348 17.3946 14.4804 17.2071 14.2929C17.0196 14.1054 16.7652 14 16.5 14ZM11.5 6C11.2348 6 10.9804 6.10536 10.7929 6.29289C10.6054 6.48043 10.5 6.73478 10.5 7V19C10.5 19.2652 10.6054 19.5196 10.7929 19.7071C10.9804 19.8946 11.2348 20 11.5 20C11.7652 20 12.0196 19.8946 12.2071 19.7071C12.3946 19.5196 12.5 19.2652 12.5 19V7C12.5 6.73478 12.3946 6.48043 12.2071 6.29289C12.0196 6.10536 11.7652 6 11.5 6Z" fill="#BABDCC"/>
</svg>
