<svg width="20" height="21" viewBox="0 0 20 21" fill="none" xmlns="http://www.w3.org/2000/svg">
<path fill-rule="evenodd" clip-rule="evenodd" d="M9.50007 0.5C8.67164 0.5 8.00007 1.17157 8.00007 2V2.36441C8.00007 2.59255 7.84509 2.79017 7.62719 2.85776C7.15618 3.00384 6.70379 3.19226 6.27449 3.41859C6.07264 3.525 5.82327 3.49485 5.66193 3.3335L5.40381 3.07538C4.81802 2.48959 3.86827 2.48959 3.28249 3.07538L2.57538 3.78249C1.98959 4.36827 1.98959 5.31802 2.57538 5.90381L2.8335 6.16193C2.99485 6.32327 3.025 6.57264 2.91859 6.77449C2.69227 7.20378 2.50385 7.65614 2.35778 8.12713C2.29019 8.34503 2.09257 8.5 1.86443 8.5H1.5C0.671573 8.5 0 9.17157 0 10V11C0 11.8284 0.671573 12.5 1.5 12.5H1.86443C2.09257 12.5 2.29019 12.655 2.35777 12.8729C2.50385 13.3439 2.69227 13.7962 2.91859 14.2255C3.025 14.4274 2.99485 14.6767 2.8335 14.8381L2.57538 15.0962C1.98959 15.682 1.98959 16.6317 2.57538 17.2175L3.28249 17.9246C3.86827 18.5104 4.81802 18.5104 5.40381 17.9246L5.66192 17.6665C5.82327 17.5052 6.07264 17.475 6.27449 17.5814C6.70379 17.8077 7.15618 17.9962 7.62719 18.1422C7.84509 18.2098 8.00007 18.4074 8.00007 18.6356V19C8.00007 19.8284 8.67164 20.5 9.50007 20.5H10.5001C11.3285 20.5 12.0001 19.8284 12.0001 19V18.6355C12.0001 18.4074 12.155 18.2098 12.3729 18.1422C12.8439 17.9961 13.2962 17.8077 13.7255 17.5814C13.9274 17.475 14.1767 17.5052 14.3381 17.6665L14.5962 17.9246C15.182 18.5104 16.1317 18.5104 16.7175 17.9246L17.4246 17.2175C18.0104 16.6317 18.0104 15.682 17.4246 15.0962L17.1665 14.8381C17.0052 14.6767 16.975 14.4274 17.0814 14.2255C17.3077 13.7962 17.4961 13.3439 17.6422 12.8729C17.7098 12.655 17.9074 12.5 18.1356 12.5H18.5C19.3284 12.5 20 11.8284 20 11V10C20 9.17157 19.3284 8.5 18.5 8.5H18.1356C17.9074 8.5 17.7098 8.34503 17.6422 8.12713C17.4961 7.65614 17.3077 7.20378 17.0814 6.77449C16.975 6.57264 17.0052 6.32328 17.1665 6.16193L17.4246 5.90381C18.0104 5.31802 18.0104 4.36827 17.4246 3.78249L16.7175 3.07538C16.1317 2.48959 15.182 2.48959 14.5962 3.07538L14.3381 3.3335C14.1767 3.49485 13.9274 3.525 13.7255 3.41859C13.2962 3.19228 12.8439 3.00387 12.3729 2.85779C12.155 2.79021 12.0001 2.59259 12.0001 2.36445V2C12.0001 1.17157 11.3285 0.5 10.5001 0.5H9.50007ZM10 13.5C11.6569 13.5 13 12.1569 13 10.5C13 8.84315 11.6569 7.5 10 7.5C8.34315 7.5 7 8.84315 7 10.5C7 12.1569 8.34315 13.5 10 13.5Z" fill="#1A2544"/>
</svg>
