<svg width="21" height="17" viewBox="0 0 21 17" fill="none" xmlns="http://www.w3.org/2000/svg">
<path d="M0.958862 1.64382C0.958862 1.10288 1.39738 0.664368 1.93831 0.664368H19.5685C20.1094 0.664368 20.5479 1.10288 20.5479 1.64382C20.5479 2.18476 20.1094 2.62327 19.5685 2.62327H1.93831C1.39738 2.62327 0.958862 2.18476 0.958862 1.64382Z" fill="#1A2544"/>
<path d="M0.958862 15.3561C0.958862 14.8152 1.39738 14.3767 1.93831 14.3767H19.5685C20.1094 14.3767 20.5479 14.8152 20.5479 15.3561C20.5479 15.8971 20.1094 16.3356 19.5685 16.3356H1.93831C1.39738 16.3356 0.958862 15.8971 0.958862 15.3561Z" fill="#1A2544"/>
<path d="M1.93831 7.52053C1.39738 7.52053 0.958862 7.95905 0.958862 8.49998C0.958862 9.04092 1.39738 9.47944 1.93831 9.47944H19.5685C20.1094 9.47944 20.5479 9.04092 20.5479 8.49998C20.5479 7.95905 20.1094 7.52053 19.5685 7.52053H1.93831Z" fill="#1A2544"/>
</svg>
