<svg width="20" height="20" viewBox="0 0 20 20" fill="none" xmlns="http://www.w3.org/2000/svg">
<path fill-rule="evenodd" clip-rule="evenodd" d="M19.6 10C19.6 12.5461 18.5886 14.9879 16.7883 16.7883C14.9879 18.5886 12.5461 19.6 10 19.6C7.45395 19.6 5.01215 18.5886 3.2118 16.7883C1.41145 14.9879 0.400024 12.5461 0.400024 10C0.400024 7.45395 1.41145 5.01215 3.2118 3.2118C5.01215 1.41145 7.45395 0.400024 10 0.400024C12.5461 0.400024 14.9879 1.41145 16.7883 3.2118C18.5886 5.01215 19.6 7.45395 19.6 10V10ZM17.2 10C17.2 11.1916 16.9108 12.3148 16.3984 13.3048L14.5696 11.4748C14.8435 10.6273 14.8759 9.72018 14.6632 8.85522L16.5376 6.98082C16.9624 7.89882 17.2 8.92002 17.2 10ZM11.002 14.6956L12.898 16.5916C11.9848 16.9937 10.9978 17.2009 10 17.2C8.95744 17.2013 7.92711 16.9753 6.98082 16.5376L8.85522 14.6632C9.55923 14.8357 10.2931 14.8468 11.002 14.6956V14.6956ZM5.38962 11.3404C5.15348 10.5273 5.1365 9.66621 5.34042 8.84442L5.24442 8.94042L3.40842 7.10082C3.00619 8.01439 2.79897 9.00183 2.80002 10C2.80002 11.1448 3.06762 12.2272 3.54282 13.1884L5.39082 11.3404H5.38962ZM6.69522 3.60042C7.71669 3.07245 8.85018 2.79792 10 2.80002C11.1448 2.80002 12.2272 3.06762 13.1884 3.54282L11.3404 5.39082C10.4191 5.12248 9.43859 5.13627 8.52522 5.43042L6.69522 3.60162V3.60042ZM12.4 10C12.4 10.6365 12.1472 11.247 11.6971 11.6971C11.247 12.1472 10.6365 12.4 10 12.4C9.36351 12.4 8.75306 12.1472 8.30297 11.6971C7.85288 11.247 7.60002 10.6365 7.60002 10C7.60002 9.36351 7.85288 8.75306 8.30297 8.30297C8.75306 7.85288 9.36351 7.60002 10 7.60002C10.6365 7.60002 11.247 7.85288 11.6971 8.30297C12.1472 8.75306 12.4 9.36351 12.4 10V10Z" fill="#1A2544"/>
</svg>
